{"accessors" : [{"bufferView" : 0, "byteOffset" : 0, "componentType" : 5123, "count" : 42, "type" : "SCALAR", "max" : [31], "min" : [0]}, {"bufferView" : 1, "byteOffset" : 0, "componentType" : 5126, "count" : 32, "type" : "VEC3", "max" : [2.298696994781494, 55.70677185058594, 35.36328887939453], "min" : [-2.298696994781494, -42.24421691894531, 21.041976928710938], "name" : "POSITION"}, {"bufferView" : 1, "byteOffset" : 12, "componentType" : 5126, "count" : 32, "type" : "VEC3", "max" : [0.9999974370002747, 0.9464789032936096, 0.999356746673584], "min" : [-0.9999974370002747, -0.8417624831199646, -0.6594846248626709], "name" : "NORMAL"}, {"bufferView" : 1, "byteOffset" : 24, "componentType" : 5126, "count" : 32, "type" : "VEC2", "max" : [0.625, 2], "min" : [0.375, 1.25], "name" : "TEXCOORD_0"}, {"bufferView" : 0, "byteOffset" : 84, "componentType" : 5123, "count" : 192, "type" : "SCALAR", "max" : [93], "min" : [0]}, {"bufferView" : 2, "byteOffset" : 0, "componentType" : 5126, "count" : 94, "type" : "VEC3", "max" : [10.378239631652832, 51.754180908203125, 30.27347755432129], "min" : [-10.378239631652832, -42.24421691894531, -7.8089118003845215], "name" : "POSITION"}, {"bufferView" : 2, "byteOffset" : 12, "componentType" : 5126, "count" : 94, "type" : "VEC3", "max" : [0.9999974370002747, 0.9847494959831238, 1.0000017881393433], "min" : [-0.9999974370002747, -0.9126132130622864, -0.9999616742134094], "name" : "NORMAL"}, {"bufferView" : 2, "byteOffset" : 24, "componentType" : 5126, "count" : 94, "type" : "VEC2", "max" : [0.875, 2], "min" : [0.125, 1], "name" : "TEXCOORD_0"}], "asset" : {"generator" : "Aspose.3D 25.2.0", "version" : "2.0"}, "buffers" : [{"uri" : "data:application/octet-stream;base64,", "byteLength" : 4512}], "bufferViews" : [{"buffer" : 0, "byteOffset" : 0, "byteLength" : 468, "target" : 34963}, {"buffer" : 0, "byteOffset" : 472, "byteLength" : 1024, "byteStride" : 32, "target" : 34962}, {"buffer" : 0, "byteOffset" : 1500, "byteLength" : 3008, "byteStride" : 32, "target" : 34962}], "materials" : [{"name" : "blinn10SG", "pbrMetallicRoughness" : {"baseColorFactor" : [0.19, 0.09, 0.06, 1], "metallicFactor" : 0, "roughnessFactor" : 1}, "emissiveFactor" : [0, 0, 0], "alphaMode" : "OPAQUE", "doubleSided" : false}], "meshes" : [{"primitives" : [{"attributes" : {"POSITION" : 1, "NORMAL" : 2, "TEXCOORD_0" : 3}, "indices" : 0, "material" : 0, "mode" : 4}, {"attributes" : {"POSITION" : 5, "NORMAL" : 6, "TEXCOORD_0" : 7}, "indices" : 4, "material" : 0, "mode" : 4}]}], "nodes" : [{"mesh" : 0, "name" : "pasted__pCube11 group"}], "scene" : 0, "scenes" : [{"nodes" : [0]}]}