{"accessors" : [{"bufferView" : 0, "byteOffset" : 0, "componentType" : 5123, "count" : 672, "type" : "SCALAR", "max" : [157], "min" : [0]}, {"bufferView" : 1, "byteOffset" : 0, "componentType" : 5126, "count" : 158, "type" : "VEC3", "max" : [3.1696889400482178, 0.8699399828910828, 0.980197012424469], "min" : [-1.0067930221557617, -1.0000640153884888, -0.9549040198326111], "name" : "POSITION"}, {"bufferView" : 1, "byteOffset" : 12, "componentType" : 5126, "count" : 158, "type" : "VEC2", "max" : [1, 2], "min" : [0, 1], "name" : "TEXCOORD_0"}, {"bufferView" : 0, "byteOffset" : 1344, "componentType" : 5123, "count" : 696, "type" : "SCALAR", "max" : [245], "min" : [0]}, {"bufferView" : 2, "byteOffset" : 0, "componentType" : 5126, "count" : 246, "type" : "VEC3", "max" : [2.0954549312591553, 4.056003093719482, 0.07049000263214111], "min" : [-0.09380099922418594, 0.5272160172462463, -0.07049000263214111], "name" : "POSITION"}, {"bufferView" : 2, "byteOffset" : 12, "componentType" : 5126, "count" : 246, "type" : "VEC2", "max" : [1, 2], "min" : [0, 1], "name" : "TEXCOORD_0"}, {"bufferView" : 0, "byteOffset" : 2736, "componentType" : 5123, "count" : 336, "type" : "SCALAR", "max" : [75], "min" : [0]}, {"bufferView" : 3, "byteOffset" : 0, "componentType" : 5126, "count" : 76, "type" : "VEC3", "max" : [1.6370069980621338, 4.130712032318115, 0.06385000050067902], "min" : [1.4947329759597778, 4.029202938079834, -0.06385000050067902], "name" : "POSITION"}, {"bufferView" : 3, "byteOffset" : 12, "componentType" : 5126, "count" : 76, "type" : "VEC2", "max" : [1, 1], "min" : [0, 1], "name" : "TEXCOORD_0"}], "asset" : {"generator" : "Aspose.3D 25.2.0", "version" : "2.0"}, "buffers" : [{"uri" : "data:application/octet-stream;base64,", "byteLength" : 13024}], "bufferViews" : [{"buffer" : 0, "byteOffset" : 0, "byteLength" : 3408, "target" : 34963}, {"buffer" : 0, "byteOffset" : 3412, "byteLength" : 3160, "byteStride" : 20, "target" : 34962}, {"buffer" : 0, "byteOffset" : 6576, "byteLength" : 4920, "byteStride" : 20, "target" : 34962}, {"buffer" : 0, "byteOffset" : 11500, "byteLength" : 1520, "byteStride" : 20, "target" : 34962}], "materials" : [{"name" : "lambert9SG", "pbrMetallicRoughness" : {"baseColorFactor" : [0.14, 0, 0, 1], "metallicFactor" : 0, "roughnessFactor" : 1}, "emissiveFactor" : [0, 0, 0], "alphaMode" : "OPAQUE", "doubleSided" : false}], "meshes" : [{"primitives" : [{"attributes" : {"POSITION" : 1, "TEXCOORD_0" : 2}, "indices" : 0, "material" : 0, "mode" : 4}, {"attributes" : {"POSITION" : 4, "TEXCOORD_0" : 5}, "indices" : 3, "material" : 0, "mode" : 4}, {"attributes" : {"POSITION" : 7, "TEXCOORD_0" : 8}, "indices" : 6, "material" : 0, "mode" : 4}]}], "nodes" : [{"mesh" : 0, "name" : "Node"}], "scene" : 0, "scenes" : [{"nodes" : [0]}]}