{
  "accessors": [
    {
      "bufferView": 0,
      "byteOffset": 0,
      "componentType": 5123,
      "count": 912,
      "type": "SCALAR",
      "max": [604],
      "min": [0]
    },
    {
      "bufferView": 1,
      "byteOffset": 0,
      "componentType": 5126,
      "count": 605,
      "type": "VEC3",
      "max": [4.106790065765381, 10.012598991394043, 1.6487849950790405],
      "min": [-2.3907039165496826, 3.9588229656219482, -4.500669956207275],
      "name": "POSITION"
    },
    {
      "bufferView": 1,
      "byteOffset": 12,
      "componentType": 5126,
      "count": 605,
      "type": "VEC3",
      "max": [0.9978936314582825, 0.991112470626831, 0.9435731768608093],
      "min": [-0.998848021030426, -0.991112470626831, -0.9295225143432617],
      "name": "NORMAL"
    },
    {
      "bufferView": 0,
      "byteOffset": 1824,
      "componentType": 5123,
      "count": 5280,
      "type": "SCALAR",
      "max": [5279],
      "min": [0]
    },
    {
      "bufferView": 2,
      "byteOffset": 0,
      "componentType": 5126,
      "count": 5280,
      "type": "VEC3",
      "max": [2.574389934539795, 7.63970422744751, 2.7806780338287354],
      "min": [-2.845151901245117, 0.17081399261951447, -3.1146109104156494],
      "name": "POSITION"
    },
    {
      "bufferView": 2,
      "byteOffset": 12,
      "componentType": 5126,
      "count": 5280,
      "type": "VEC3",
      "max": [0.9964107275009155, 0.9997446537017822, 0.9992778897285461],
      "min": [-0.9964107275009155, -0.9997446537017822, -0.9991790652275085],
      "name": "NORMAL"
    }
  ],
  "asset": {
    "generator": "Aspose.3D 25.2.0",
    "version": "2.0"
  },
  "buffers": [
    {
      "name": "grape1",
      "byteLength": 153624,
      "uri": "data:application/octet-stream;base64,"
    }
  ],
  "bufferViews": [
    {
      "buffer": 0,
      "byteOffset": 0,
      "byteLength": 12384,
      "target": 34963
    },
    {
      "buffer": 0,
      "byteOffset": 12384,
      "byteLength": 14520,
      "byteStride": 24,
      "target": 34962
    },
    {
      "buffer": 0,
      "byteOffset": 26904,
      "byteLength": 126720,
      "byteStride": 24,
      "target": 34962
    }
  ],
  "materials": [
    {
      "name": "4CAF50",
      "pbrMetallicRoughness": {
        "baseColorFactor": [0.07, 0.44, 0.08, 1],
        "metallicFactor": 0,
        "roughnessFactor": 0.903921569
      },
      "emissiveFactor": [0, 0, 0],
      "alphaMode": "OPAQUE",
      "doubleSided": false
    }
  ],
  "meshes": [
    {
      "primitives": [
        {
          "attributes": {
            "POSITION": 1,
            "NORMAL": 2
          },
          "indices": 0,
          "material": 0,
          "mode": 4
        },
        {
          "attributes": {
            "POSITION": 4,
            "NORMAL": 5
          },
          "indices": 3,
          "material": 0,
          "mode": 4
        }
      ]
    }
  ],
  "nodes": [
    {
      "mesh": 0,
      "name": "Icosphere.015_Icosphere.018"
    }
  ],
  "scene": 0,
  "scenes": [
    {
      "nodes": [0]
    }
  ]
}
